<?xml version="1.0" standalone="no"?>
<!DOCTYPE svg PUBLIC "-//W3C//DTD SVG 20010904//EN"
 "http://www.w3.org/TR/2001/REC-SVG-20010904/DTD/svg10.dtd">
<svg version="1.0" xmlns="http://www.w3.org/2000/svg"
 width="355.000000pt" height="355.000000pt" viewBox="0 0 355.000000 355.000000"
 preserveAspectRatio="xMidYMid meet">
<metadata>
Created by potrace 1.11, written by Peter Selinger 2001-2013
</metadata>
<g transform="translate(0.000000,355.000000) scale(0.100000,-0.100000)"
fill="#000000" stroke="none">
<path d="M1825 2620 c-7 -32 1 -54 16 -45 12 8 12 62 0 69 -5 4 -12 -7 -16
-24z"/>
<path d="M1790 2554 c0 -10 6 -14 15 -10 9 3 15 0 15 -8 0 -20 -12 -27 -27
-14 -10 8 -17 8 -25 0 -6 -6 -17 -8 -24 -5 -19 7 -46 -17 -40 -34 4 -9 -3 -13
-19 -13 -27 0 -55 -33 -55 -66 0 -11 14 -41 31 -67 l31 -47 -55 -162 c-31 -90
-105 -307 -165 -483 -61 -176 -140 -405 -175 -510 -36 -104 -69 -198 -72 -208
-7 -16 1 -17 110 -15 l118 3 52 150 c58 170 72 199 112 237 52 50 83 56 275
55 l177 0 56 -166 c31 -91 66 -192 77 -223 l21 -58 113 0 c63 0 114 2 114 5 0
3 -25 78 -56 168 -136 396 -179 523 -293 856 l-121 354 30 40 c18 25 30 53 30
72 0 34 -26 65 -53 65 -10 0 -17 8 -17 20 0 11 -3 21 -7 21 -45 8 -62 10 -85
9 -18 0 -28 5 -28 14 0 10 7 12 21 9 16 -4 20 -2 17 8 -7 21 -98 24 -98 3z m4
-60 c3 -8 2 -12 -4 -9 -6 3 -10 10 -10 16 0 14 7 11 14 -7z m56 1 c0 -8 -7
-15 -15 -15 -16 0 -20 12 -8 23 11 12 23 8 23 -8z m50 5 c0 -5 -5 -10 -11 -10
-5 0 -7 5 -4 10 3 6 8 10 11 10 2 0 4 -4 4 -10z m-148 -22 c-6 -6 -16 -7 -22
-3 -9 6 -9 9 1 16 17 10 34 0 21 -13z m195 -4 c-3 -4 -14 -3 -24 0 -15 6 -15
8 -3 16 16 10 39 -4 27 -16z m-129 -89 c0 -71 -1 -75 -22 -75 -18 0 -25 9 -34
39 -21 69 -9 111 32 111 23 0 24 -3 24 -75z m92 60 c16 -19 16 -52 0 -99 -9
-29 -16 -36 -33 -34 -19 3 -22 10 -23 68 -1 36 1 68 3 73 7 12 40 8 53 -8z
m-185 -38 c1 -23 4 -54 9 -69 10 -34 -5 -37 -33 -7 -45 48 -44 113 0 116 22 2
24 -2 24 -40z m279 12 c7 -20 3 -34 -18 -67 -14 -23 -33 -42 -41 -42 -18 0
-18 1 -4 37 6 15 11 44 11 64 -1 31 2 36 21 35 14 -1 25 -10 31 -27z m-272
-153 c4 -17 1 -23 -9 -19 -14 6 -18 43 -4 43 5 0 11 -11 13 -24z m231 4 c3
-13 0 -20 -9 -20 -8 0 -11 6 -8 15 4 10 0 15 -11 15 -11 0 -15 -6 -11 -18 4
-13 1 -18 -14 -18 -15 0 -18 5 -14 18 4 12 0 18 -11 18 -11 0 -15 -5 -11 -15
6 -16 5 -17 -54 -17 -65 0 -67 1 -73 22 -5 19 0 20 103 20 99 0 108 -2 113
-20z m-48 -460 c37 -113 70 -210 72 -216 3 -8 -41 -11 -149 -10 -96 1 -152 5
-151 11 11 53 147 435 153 428 4 -4 38 -100 75 -213z"/>
<path d="M1772 2269 c2 -6 8 -10 13 -10 5 0 11 4 13 10 2 6 -4 11 -13 11 -9 0
-15 -5 -13 -11z"/>
<path d="M1820 2270 c0 -5 7 -10 15 -10 8 0 15 5 15 10 0 6 -7 10 -15 10 -8 0
-15 -4 -15 -10z"/>
<path d="M225 2440 c-47 -10 -82 -38 -103 -80 -18 -37 -19 -69 -19 -745 l0
-706 106 3 106 3 2 277 c1 176 5 290 13 312 14 43 39 72 74 86 42 16 556 14
557 -2 0 -7 1 -161 2 -343 l2 -330 105 -3 105 -3 -1 758 c-1 417 -2 763 -3
770 -2 17 -97 7 -132 -14 -15 -9 -38 -31 -51 -47 -22 -30 -23 -37 -25 -276 -1
-135 -2 -252 -2 -260 -1 -13 -41 -15 -304 -13 -166 1 -311 2 -322 2 -20 1 -20
8 -20 308 l0 307 -30 2 c-16 0 -44 -2 -60 -6z"/>
<path d="M2506 2435 c-48 -13 -93 -57 -106 -103 -13 -41 -9 -975 4 -1027 3
-16 14 -52 23 -80 71 -223 246 -345 491 -345 294 1 477 161 522 455 10 65 16
714 11 1077 l-1 37 -47 -5 c-77 -7 -120 -31 -142 -78 -19 -39 -20 -64 -22
-501 -1 -475 -6 -538 -45 -620 -23 -49 -75 -96 -131 -118 -87 -34 -238 -26
-319 16 -61 31 -114 117 -129 208 -5 24 -9 274 -11 554 -1 281 -3 517 -3 525
-1 18 -43 20 -95 5z"/>
<path d="M364 1368 c-9 -9 -14 -27 -12 -40 3 -21 8 -23 63 -22 45 0 60 4 60
15 0 8 -10 15 -23 17 -27 4 -19 22 9 22 12 0 19 5 16 13 -6 19 -95 16 -113 -5z
m36 -22 c0 -3 -4 -8 -10 -11 -5 -3 -10 -1 -10 4 0 6 5 11 10 11 6 0 10 -2 10
-4z"/>
<path d="M355 1247 c-11 -43 9 -78 29 -52 17 20 63 27 70 10 3 -8 11 -12 19
-10 18 7 10 75 -9 75 -8 0 -14 -6 -14 -13 0 -19 -59 -21 -66 -2 -9 22 -23 18
-29 -8z"/>
<path d="M398 1144 c-44 -19 -53 -36 -30 -64 23 -27 112 -41 112 -16 0 9 -8
16 -19 16 -20 0 -31 17 -24 38 3 6 13 12 24 12 10 0 19 7 19 15 0 19 -34 19
-82 -1z m12 -38 c0 -3 -4 -8 -10 -11 -5 -3 -10 -1 -10 4 0 6 5 11 10 11 6 0
10 -2 10 -4z"/>
<path d="M363 1003 c-22 -8 -14 -23 12 -23 18 0 25 -5 25 -20 0 -15 -7 -20
-26 -20 -16 0 -24 -5 -21 -12 6 -20 132 -18 132 2 0 10 -9 14 -27 13 -22 -2
-28 2 -28 17 0 15 7 20 25 20 15 0 25 6 25 15 0 11 -13 14 -52 13 -29 0 -59
-3 -65 -5z"/>
</g>
</svg>
